<svg width="350" height="350" xmlns="http://www.w3.org/2000/svg" xml:space="preserve" version="1.1" enable-background="new 0 0 350 350">
 <defs>
  <linearGradient y2="-0.00027" y1="1.00009" x2="0.50636" x1="0.49606" id="i">
   <stop offset="0" stop-color="#D9A047"/>
   <stop offset="0.1034" stop-color="#D29B42"/>
   <stop offset="0.1899" stop-color="#D29B42"/>
   <stop offset="0.4014" stop-color="#E7DE84"/>
   <stop offset="0.6082" stop-color="#BB8C3C"/>
   <stop offset="0.8149" stop-color="#B98A39"/>
   <stop offset="1" stop-color="#DBD796"/>
  </linearGradient>
  <linearGradient y2="0.17046" y1="1.04305" x2="0.03527" x1="0.92097" id="h">
   <stop offset="0" stop-color="#2A1C12"/>
   <stop offset="0.02632" stop-color="#302013"/>
   <stop offset="0.06556" stop-color="#3D2918"/>
   <stop offset="0.1129" stop-color="#54371F"/>
   <stop offset="0.166" stop-color="#794923"/>
   <stop offset="0.1818" stop-color="#864F22"/>
   <stop offset="0.2545" stop-color="#B2813A"/>
   <stop offset="0.2788" stop-color="#8E5D26"/>
   <stop offset="0.3318" stop-color="#976628"/>
   <stop offset="0.4294" stop-color="#AA7F39"/>
   <stop offset="0.5598" stop-color="#D1B260"/>
   <stop offset="0.6606" stop-color="#F8E887"/>
   <stop offset="0.8667" stop-color="#864F22"/>
  </linearGradient>
  <linearGradient y2="0.23629" y1="1.00135" x2="0.93079" x1="0.10265" id="g">
   <stop offset="0" stop-color="#2A1C12"/>
   <stop offset="0.02632" stop-color="#302013"/>
   <stop offset="0.06556" stop-color="#3D2918"/>
   <stop offset="0.1129" stop-color="#54371F"/>
   <stop offset="0.166" stop-color="#794923"/>
   <stop offset="0.1818" stop-color="#864F22"/>
   <stop offset="0.2545" stop-color="#B2813A"/>
   <stop offset="0.2788" stop-color="#8E5D26"/>
   <stop offset="0.2959" stop-color="#976628"/>
   <stop offset="0.3274" stop-color="#AA803A"/>
   <stop offset="0.3695" stop-color="#D1B363"/>
   <stop offset="0.4" stop-color="#F7E68A"/>
   <stop offset="0.5818" stop-color="#E8B965"/>
   <stop offset="0.6364" stop-color="#F8E887"/>
   <stop offset="0.8667" stop-color="#864F22"/>
  </linearGradient>
  <linearGradient y2="0.06675" y1="1.01398" x2="0.99151" x1="0.05295" id="f">
   <stop offset="0.01212" stop-color="#2A1C12"/>
   <stop offset="0.2606" stop-color="#8E5D26"/>
   <stop offset="0.2897" stop-color="#99682A"/>
   <stop offset="0.3434" stop-color="#B7873F"/>
   <stop offset="0.4" stop-color="#E8B965"/>
   <stop offset="0.6061" stop-color="#864F22"/>
   <stop offset="1" stop-color="#2A1C12"/>
  </linearGradient>
  <linearGradient y2="-0.54203" y1="1.53623" x2="0.93522" x1="0.09247" id="e">
   <stop offset="0.01212" stop-color="#2A1C12"/>
   <stop offset="0.2606" stop-color="#8E5D26"/>
   <stop offset="0.2897" stop-color="#99682A"/>
   <stop offset="0.3434" stop-color="#B7873F"/>
   <stop offset="0.4" stop-color="#E8B965"/>
   <stop offset="0.6061" stop-color="#864F22"/>
   <stop offset="1" stop-color="#2A1C12"/>
  </linearGradient>
  <linearGradient y2="-0.40145" y1="1.35362" x2="0.86499" x1="0.15178" id="d">
   <stop offset="0.01212" stop-color="#2A1C12"/>
   <stop offset="0.2606" stop-color="#8E5D26"/>
   <stop offset="0.2897" stop-color="#99682A"/>
   <stop offset="0.3434" stop-color="#B7873F"/>
   <stop offset="0.4" stop-color="#E8B965"/>
   <stop offset="0.6061" stop-color="#864F22"/>
   <stop offset="1" stop-color="#2A1C12"/>
  </linearGradient>
  <linearGradient y2="0.17778" y1="0.80952" x2="0.82005" x1="0.19592" id="c">
   <stop offset="0.01212" stop-color="#2A1C12"/>
   <stop offset="0.2606" stop-color="#8E5D26"/>
   <stop offset="0.2897" stop-color="#99682A"/>
   <stop offset="0.3434" stop-color="#B7873F"/>
   <stop offset="0.4" stop-color="#E8B965"/>
   <stop offset="0.6061" stop-color="#864F22"/>
   <stop offset="1" stop-color="#2A1C12"/>
  </linearGradient>
  <linearGradient y2="0.99402" y1="0.09685" x2="1.05302" x1="0.0176" id="b">
   <stop offset="0" stop-color="#2E191B"/>
   <stop offset="0.1864" stop-color="#513126"/>
   <stop offset="0.3758" stop-color="#7C492A"/>
   <stop offset="0.4147" stop-color="#78462A"/>
   <stop offset="0.4669" stop-color="#6A3F29"/>
   <stop offset="0.5266" stop-color="#543226"/>
   <stop offset="0.5915" stop-color="#38201F"/>
   <stop offset="0.6121" stop-color="#2E191B"/>
   <stop offset="0.8364" stop-color="#8E5D26"/>
   <stop offset="0.8604" stop-color="#845724"/>
   <stop offset="0.9047" stop-color="#694722"/>
   <stop offset="0.9638" stop-color="#432F1C"/>
   <stop offset="1" stop-color="#2A1C12"/>
  </linearGradient>
  <linearGradient y2="1.00449" y1="0.09635" x2="-0.00394" x1="0.92969" id="a">
   <stop offset="0" stop-color="#2E191B"/>
   <stop offset="0.1864" stop-color="#513126"/>
   <stop offset="0.3758" stop-color="#7C492A"/>
   <stop offset="0.4147" stop-color="#78462A"/>
   <stop offset="0.4669" stop-color="#6A3F29"/>
   <stop offset="0.5266" stop-color="#543226"/>
   <stop offset="0.5915" stop-color="#38201F"/>
   <stop offset="0.6121" stop-color="#2E191B"/>
   <stop offset="0.8364" stop-color="#8E5D26"/>
   <stop offset="0.8604" stop-color="#845724"/>
   <stop offset="0.9047" stop-color="#694722"/>
   <stop offset="0.9638" stop-color="#432F1C"/>
   <stop offset="1" stop-color="#2A1C12"/>
  </linearGradient>
  <linearGradient y2="1.69131" y1="0.14595" x2="1.7725" x1="0.09303" id="q">
   <stop offset="0" stop-color="#2A1C12"/>
   <stop offset="0.00012" stop-color="#2D1E14"/>
   <stop offset="0.00122" stop-color="#432C1A"/>
   <stop offset="0.00244" stop-color="#55381F"/>
   <stop offset="0.00383" stop-color="#654022"/>
   <stop offset="0.00547" stop-color="#744823"/>
   <stop offset="0.00749" stop-color="#7E4C22"/>
   <stop offset="0.01032" stop-color="#844E22"/>
   <stop offset="0.01818" stop-color="#864F22"/>
   <stop offset="0.03636" stop-color="#F7E68A"/>
   <stop offset="0.07273" stop-color="#8E5D26"/>
   <stop offset="0.08286" stop-color="#99682A"/>
   <stop offset="0.1015" stop-color="#B7873F"/>
   <stop offset="0.1212" stop-color="#E8B965"/>
   <stop offset="0.1697" stop-color="#F8E887"/>
   <stop offset="0.2303" stop-color="#B2813A"/>
   <stop offset="0.3333" stop-color="#E6B963"/>
  </linearGradient>
  <linearGradient y2="0.0556" y1="1.22703" x2="0.88962" x1="-0.11206" id="p">
   <stop offset="0.3212" stop-color="#E6B963"/>
   <stop offset="0.5461" stop-color="#F5E082"/>
   <stop offset="0.5879" stop-color="#F8E887"/>
   <stop offset="0.6206" stop-color="#F1DF81"/>
   <stop offset="0.6646" stop-color="#E1CB73"/>
   <stop offset="0.7148" stop-color="#CCAD5D"/>
   <stop offset="0.7697" stop-color="#B28A41"/>
   <stop offset="0.8279" stop-color="#946327"/>
   <stop offset="0.8364" stop-color="#8E5D26"/>
   <stop offset="0.8541" stop-color="#99682A"/>
   <stop offset="0.8868" stop-color="#B7873F"/>
   <stop offset="0.9212" stop-color="#E8B965"/>
   <stop offset="0.9818" stop-color="#864F22"/>
   <stop offset="1" stop-color="#2A1C12"/>
  </linearGradient>
  <linearGradient y2="0.49798" y1="0.49798" x2="0.99966" x1="-0.00015" id="o">
   <stop offset="0.01212" stop-color="#2A1C12"/>
   <stop offset="0.2606" stop-color="#8E5D26"/>
   <stop offset="0.2897" stop-color="#99682A"/>
   <stop offset="0.3434" stop-color="#B7873F"/>
   <stop offset="0.4" stop-color="#E8B965"/>
   <stop offset="0.6061" stop-color="#864F22"/>
   <stop offset="1" stop-color="#2A1C12"/>
  </linearGradient>
  <linearGradient y2="0.22127" y1="0.95385" x2="0.14358" x1="0.84053" id="n">
   <stop offset="0" stop-color="#D9A048"/>
   <stop offset="0.08177" stop-color="#D39C43"/>
   <stop offset="0.1818" stop-color="#C1903B"/>
   <stop offset="0.222" stop-color="#BA8A3A"/>
   <stop offset="0.4512" stop-color="#F0ECB4"/>
   <stop offset="0.6707" stop-color="#BB8C3D"/>
   <stop offset="0.8366" stop-color="#BA8A3A"/>
   <stop offset="1" stop-color="#F0ECB4"/>
  </linearGradient>
  <linearGradient y2="0.22105" y1="0.9541" x2="0.14445" x1="0.84489" id="m">
   <stop offset="0" stop-color="#D9A048"/>
   <stop offset="0.08177" stop-color="#D39C43"/>
   <stop offset="0.1818" stop-color="#C1903B"/>
   <stop offset="0.222" stop-color="#BA8A3A"/>
   <stop offset="0.4512" stop-color="#F0ECB4"/>
   <stop offset="0.6707" stop-color="#BB8C3D"/>
   <stop offset="0.8366" stop-color="#BA8A3A"/>
   <stop offset="1" stop-color="#F0ECB4"/>
  </linearGradient>
  <linearGradient y2="0.21877" y1="0.95348" x2="0.14622" x1="0.84187" id="l">
   <stop offset="0" stop-color="#D9A048"/>
   <stop offset="0.08177" stop-color="#D39C43"/>
   <stop offset="0.1818" stop-color="#C1903B"/>
   <stop offset="0.222" stop-color="#BA8A3A"/>
   <stop offset="0.4512" stop-color="#F0ECB4"/>
   <stop offset="0.6707" stop-color="#BB8C3D"/>
   <stop offset="0.8366" stop-color="#BA8A3A"/>
   <stop offset="1" stop-color="#F0ECB4"/>
  </linearGradient>
  <linearGradient y2="0.22073" y1="0.95366" x2="0.14527" x1="0.8439" id="k">
   <stop offset="0" stop-color="#D9A048"/>
   <stop offset="0.08177" stop-color="#D39C43"/>
   <stop offset="0.1818" stop-color="#C1903B"/>
   <stop offset="0.222" stop-color="#BA8A3A"/>
   <stop offset="0.4512" stop-color="#F0ECB4"/>
   <stop offset="0.6707" stop-color="#BB8C3D"/>
   <stop offset="0.8366" stop-color="#BA8A3A"/>
   <stop offset="1" stop-color="#F0ECB4"/>
  </linearGradient>
  <linearGradient y2="0.2203" y1="0.95349" x2="0.14618" x1="0.84263" id="j">
   <stop offset="0" stop-color="#D9A048"/>
   <stop offset="0.08177" stop-color="#D39C43"/>
   <stop offset="0.1818" stop-color="#C1903B"/>
   <stop offset="0.222" stop-color="#BA8A3A"/>
   <stop offset="0.4512" stop-color="#F0ECB4"/>
   <stop offset="0.6707" stop-color="#BB8C3D"/>
   <stop offset="0.8366" stop-color="#BA8A3A"/>
   <stop offset="1" stop-color="#F0ECB4"/>
  </linearGradient>
 </defs>
 <g>
  <title>Layer 1</title>
  <path fill="#ffffff" id="svg_1" d="m0,-1l350,0l0,350l-350,0l0,-350z" opacity="undefined" stroke-width="0"/>
  <path id="svg_2" fill="url(#i)" d="m319.5,207.1c-1.4,5.8 -3.2,11.4 -5.3,16.9c2.1,-2.5 4.6,-4.9 7,-6.2c8.4,-4.4 20.4,-1 20.4,-1s-4.4,10.3 -13.1,13.3c-7.8,2.6 -14.4,2.1 -17.6,1.6c-2.6,5.5 -5.5,10.9 -8.7,16c2.6,-2.2 5.7,-4.4 8.5,-5.3c9.2,-3 20.7,2.6 20.7,2.6s-6.2,9.6 -15.5,11c-8.4,1.3 -15.1,-0.5 -18.1,-1.6c-3.6,5.1 -7.5,9.9 -11.6,14.4c3.1,-1.8 6.7,-3.6 9.8,-4c9.8,-1.4 20.3,6.3 20.3,6.3s-8,8.6 -17.5,8.3c-8.8,-0.2 -15.2,-3.3 -18,-4.9c-4.4,4.4 -9,8.5 -13.7,12.2c3.4,-1.3 7.3,-2.4 10.5,-2.3c10.1,0.4 19.3,9.9 19.3,9.9s-9.5,7.2 -19.1,5.3c-8.7,-1.7 -14.6,-5.9 -17.2,-8c-4.7,3.4 -9.6,6.5 -14.5,9.2c3.3,-0.6 7,-0.8 9.8,-0.2c10,2.2 17.7,13.4 17.7,13.4s-10.8,5.5 -20.1,1.9c-8.1,-3.2 -13.2,-8.1 -15.6,-10.8c-5.2,2.5 -10.5,4.6 -15.7,6.2c3.4,0.1 7,0.4 9.6,1.5c9.7,3.9 15.4,16.6 15.4,16.6s-11.9,3.6 -20.5,-1.6c-7.9,-4.8 -12.2,-11 -13.9,-14c-12.3,2.2 -22.6,5.7 -30.9,9.4c15.1,8 21.3,15.3 21.3,15.3l-5.4,4.8s-7,-8.6 -22.6,-16.8c-15.5,8.3 -22.6,16.8 -22.6,16.8l-5.4,-4.8s6.2,-7.4 21.3,-15.3c-8.4,-3.8 -18.6,-7.2 -30.9,-9.4c-1.7,3 -6,9.2 -13.9,14c-8.7,5.3 -20.5,1.6 -20.5,1.6s5.7,-12.6 15.4,-16.6c2.7,-1.1 6.2,-1.5 9.6,-1.5c-5.2,-1.6 -10.4,-3.7 -15.7,-6.2c-2.3,2.7 -7.4,7.6 -15.6,10.8c-9.3,3.6 -20.1,-1.9 -20.1,-1.9s7.6,-11.2 17.7,-13.4c2.8,-0.6 6.4,-0.3 9.8,0.2c-4.9,-2.7 -9.7,-5.8 -14.5,-9.2c-2.6,2.1 -8.5,6.3 -17.2,8c-9.6,1.9 -19.1,-5.3 -19.1,-5.3s9.3,-9.5 19.3,-9.9c3.2,-0.1 7.1,1 10.5,2.3c-4.7,-3.8 -9.3,-7.8 -13.7,-12.2c-2.8,1.6 -9.2,4.7 -18,4.9c-9.5,0.2 -17.5,-8.3 -17.5,-8.3s10.6,-7.6 20.3,-6.3c3.1,0.4 6.7,2.2 9.8,4c-4.1,-4.5 -8,-9.4 -11.6,-14.4c-3,1.1 -9.7,2.9 -18.2,1.6c-9.2,-1.4 -15.5,-11 -15.5,-11s11.5,-5.6 20.7,-2.6c2.8,0.9 5.9,3.1 8.5,5.3c-3.2,-5.1 -6.1,-10.4 -8.7,-16c-3.2,0.5 -9.8,1.1 -17.6,-1.6c-8.7,-2.9 -13.1,-13.3 -13.1,-13.3s12,-3.4 20.4,1c2.4,1.3 4.9,3.8 7,6.2c-2.1,-5.4 -3.9,-11.1 -5.3,-16.9c-3.1,0 -9.7,-0.6 -16.9,-4.5c-7.9,-4.3 -10.4,-15 -10.4,-15s12.2,-1.2 19.5,4.5c2.3,1.8 4.3,4.8 6,7.7c-1.3,-6.1 -2.2,-12.2 -2.7,-18.3c-3,-0.6 -9.2,-2.3 -15.4,-7.2c-6.5,-5.5 -7.1,-16.3 -7.1,-16.3s12,0.9 18.1,7.6c1.8,2 3.3,5.2 4.4,8.3c-0.2,-6.4 0.1,-12.7 0.8,-18.9c-2.7,-1 -8.6,-3.7 -13.9,-9.7c-5.7,-6.5 -4.4,-17 -4.4,-17s11.4,2.9 16.1,10.4c1.6,2.5 2.5,6.3 3,9.6c1,-6.7 2.4,-13.2 4.3,-19.6c-2.3,-1.3 -7.8,-4.9 -12,-11.8c-4.4,-7.2 -1.4,-17.1 -1.4,-17.1s10.5,4.7 13.8,12.8c1.2,3 1.3,7.3 1.2,10.8c2.2,-6.8 4.8,-13.3 7.8,-19.6c-2,-1.6 -6.7,-6.1 -9.6,-13.5c-3,-7.7 1.6,-16.8 1.6,-16.8s9.4,6.4 11.1,14.7c0.7,3 0.1,7.1 -0.6,10.4c3.3,-6.4 7,-12.4 11,-17.9c-1.7,-2.1 -5.3,-7 -6.8,-14.4c-1.6,-8 4.4,-15.9 4.4,-15.9s7.9,7.7 8.3,16.1c0.1,2.8 -1,6.4 -2.1,9.3c4.4,-5.5 9,-10.4 13.8,-14.6c-1.2,-2.1 -4.1,-7.7 -4.3,-15.4c-0.2,-8 6.9,-14.6 6.9,-14.6s6.4,8.8 5.2,17c-0.4,3.2 -2.7,7.2 -4.5,10.1c5.9,-5.1 11.6,-9.4 17.1,-13c-0.8,-2 -2.8,-8 -1.6,-15.9c1.2,-7.7 9.2,-12.9 9.2,-12.9s4.6,9.6 2.2,17.3c-1.1,3.3 -4.4,7.2 -6.8,9.6c7.1,-4.5 13.8,-7.8 19.5,-10.3c-0.4,-1.9 -1.5,-8.2 1.1,-15.7c2.4,-7.3 11.1,-10.9 11.1,-10.9s2.8,10 -0.9,17c-1.7,3.3 -6,6.6 -8.7,8.5c3.7,-1.5 7,-2.7 9.6,-3.5c0,0.2 0.1,0.3 0.2,0.5c-3.6,1.2 -8.2,3.1 -13.7,5.6c2.7,-0.5 9.8,-1.6 14,-0.2c7.5,2.5 12.4,11.6 12.4,11.6s-8.7,3.3 -15.5,-0.2c-7.6,-3.9 -11.2,-9.6 -11.9,-10.8c-6,2.9 -12.8,6.7 -20,11.7c3.1,-1.1 9,-2.8 13,-2.3c8,1.1 14.6,9.5 14.6,9.5s-8.2,4.9 -15.6,2.6c-7.8,-2.4 -12.4,-7.1 -13.7,-8.6c-5.4,3.9 -11.1,8.4 -16.8,13.7c-0.4,0.4 -0.9,0.8 -1.3,1.2c3,-1.7 8.4,-4.4 12.5,-4.5c8.2,-0.3 16.3,7 16.3,7s-7.4,6.4 -15.3,5.4c-8.4,-1.1 -13.8,-5 -15.3,-6.2c-5.4,5.2 -10.5,11.2 -15.2,18c2.7,-2.2 7.7,-5.9 11.7,-6.7c8.2,-1.7 17.6,4.1 17.6,4.1s-6.3,7.7 -14.4,8.1c-8.4,0.8 -14.5,-2.1 -16.4,-3c-4,5.9 -7.6,12.3 -10.8,19.1c2.4,-2.7 6.1,-6.1 9.4,-7.5c7.9,-3.2 18.4,1 18.4,1s-4.9,8.9 -13,10.7c-7.8,1.7 -14,0.3 -16.5,-0.4c-2.8,6.3 -5.2,13 -7.2,19.8c2,-3 4.7,-6.6 7.6,-8.4c7.4,-4.6 18.7,-2.3 18.7,-2.3s-3.4,9.8 -11.2,13c-7.3,3 -13.7,2.8 -16.5,2.5c-1.7,6.8 -3,13.8 -3.7,20.9c1.5,-3.4 3.6,-7.6 6.2,-9.9c6.6,-6 18.4,-5.6 18.4,-5.6s-1.7,10.4 -8.9,15.1c-6.8,4.4 -13.3,5.3 -16.1,5.5c-0.5,6.9 -0.5,14 0,21c0.9,-3.7 2.3,-8.4 4.5,-11.2c5.6,-7.2 17.5,-8.9 17.5,-8.9s0.2,10.8 -6.3,16.7c-6.1,5.6 -12.4,7.6 -15.2,8.3c0.7,6.3 1.9,12.7 3.6,18.9c0.3,-3.7 0.9,-8 2.5,-10.9c4.4,-8.2 16,-12 16,-12s2.1,10.8 -3.4,17.9c-5,6.5 -10.8,9.7 -13.6,11c1.8,6.3 4,12.3 6.7,18.2c-0.4,-3.8 -0.5,-8.4 0.5,-11.6c2.9,-9 14,-14.9 14,-14.9s4,10.5 -0.2,18.6c-3.8,7.4 -9.1,11.6 -11.7,13.4c2.8,5.5 5.9,10.8 9.4,15.8c-0.9,-3.5 -1.7,-7.6 -1.2,-10.8c1.4,-9.6 11.4,-17.5 11.4,-17.5s5.9,9.8 3.1,18.7c-2.4,7.8 -6.7,12.9 -9.1,15.3c3.6,4.8 7.5,9.3 11.5,13.5c-1.5,-3.2 -2.8,-6.9 -2.9,-9.9c-0.3,-9.9 8.4,-19.6 8.4,-19.6s7.7,8.8 6.4,18.3c-1.1,8.1 -4.3,13.9 -6.3,16.8c4.3,4 8.7,7.8 13.3,11.2c-2,-2.9 -3.8,-6.3 -4.5,-9.2c-2.1,-9.9 4.9,-21.1 4.9,-21.1s9.3,7.5 9.7,17.2c0.4,8.3 -1.9,14.7 -3.4,18c5.1,3.4 10.3,6.4 15.5,9c-2.7,-2.7 -5.4,-6 -6.7,-9c-3.8,-9.5 1.2,-22.1 1.2,-22.1s10.6,5.9 12.8,15.6c1.9,8.4 0.7,15.4 -0.3,18.9c5.5,2.3 10.9,4.2 16.2,5.6c-3,-2.2 -6.1,-4.8 -7.8,-7.5c-5.5,-8.9 -2.7,-22.5 -2.7,-22.5s11.7,4 15.6,13.4c3.2,7.6 3.4,14.4 3.1,18.2c7.7,1.5 14.7,3.4 20.9,5.6c4.3,1.5 8.2,3.1 11.7,4.7c3.5,-1.6 7.4,-3.2 11.7,-4.7c6.2,-2.2 13.2,-4.2 20.9,-5.6c-0.2,-3.8 0,-10.6 3.1,-18.2c3.9,-9.4 15.6,-13.4 15.6,-13.4s2.8,13.5 -2.7,22.5c-1.7,2.7 -4.8,5.4 -7.8,7.5c5.3,-1.4 10.7,-3.2 16.2,-5.6c-0.9,-3.5 -2.1,-10.4 -0.3,-18.9c2.1,-9.7 12.8,-15.6 12.8,-15.6s5,12.6 1.2,22.1c-1.2,3.1 -4,6.3 -6.7,9c5.2,-2.6 10.4,-5.6 15.5,-9c-1.5,-3.3 -3.7,-9.7 -3.4,-18c0.4,-9.7 9.7,-17.2 9.7,-17.2s7,11.3 4.9,21.1c-0.6,3 -2.5,6.3 -4.5,9.2c4.6,-3.4 9.1,-7.2 13.3,-11.2c-2,-2.9 -5.3,-8.7 -6.3,-16.8c-1.2,-9.5 6.4,-18.3 6.4,-18.3s8.7,9.7 8.4,19.6c-0.1,3 -1.4,6.7 -2.9,9.9c4.1,-4.2 7.9,-8.7 11.5,-13.5c-2.4,-2.4 -6.7,-7.5 -9.1,-15.3c-2.8,-8.9 3.1,-18.7 3.1,-18.7s10,7.9 11.4,17.5c0.5,3.2 -0.3,7.3 -1.3,10.8c3.4,-5 6.6,-10.3 9.4,-15.8c-2.6,-1.8 -7.9,-6 -11.7,-13.4c-4.2,-8.1 -0.2,-18.6 -0.2,-18.6s11,5.9 14,14.9c1.1,3.3 0.9,7.9 0.5,11.7c2.6,-5.8 4.9,-11.9 6.7,-18.2c-2.8,-1.3 -8.6,-4.5 -13.6,-11c-5.5,-7.1 -3.4,-17.9 -3.4,-17.9s11.6,3.8 16,12c1.6,2.9 2.2,7.3 2.5,11c1.7,-6.3 2.9,-12.6 3.6,-19c-2.8,-0.7 -9.2,-2.8 -15.2,-8.3c-6.5,-6 -6.3,-16.7 -6.3,-16.7s11.9,1.7 17.5,8.9c2.2,2.8 3.7,7.5 4.5,11.2c0.6,-7.1 0.5,-14.1 0,-21.1c-2.8,-0.2 -9.3,-1.1 -16.1,-5.5c-7.3,-4.6 -8.9,-15.1 -8.9,-15.1s11.8,-0.4 18.4,5.6c2.6,2.3 4.8,6.6 6.2,10c-0.8,-7.1 -2,-14.2 -3.7,-21c-2.8,0.3 -9.2,0.5 -16.5,-2.5c-7.8,-3.2 -11.2,-13 -11.2,-13s11.3,-2.4 18.7,2.3c2.8,1.8 5.6,5.4 7.6,8.4c-2,-6.9 -4.4,-13.5 -7.2,-19.9c-2.5,0.7 -8.8,2.2 -16.5,0.4c-8.1,-1.8 -13,-10.7 -13,-10.7s10.5,-4.2 18.4,-1c3.3,1.3 6.9,4.8 9.4,7.5c-3.2,-6.8 -6.9,-13.3 -10.8,-19.2c-1.8,1 -7.9,3.9 -16.3,3.5c-8.1,-0.4 -14.4,-8.1 -14.4,-8.1s9.4,-5.8 17.6,-4.1c4,0.9 9.1,4.6 11.7,6.8c-4.7,-6.8 -9.8,-12.8 -15.2,-18c-1.5,1.2 -6.9,5.1 -15.3,6.2c-7.9,1 -15.3,-5.4 -15.3,-5.4s8.1,-7.2 16.3,-7c4.1,0.1 9.6,2.9 12.6,4.5c-0.4,-0.4 -0.9,-0.8 -1.3,-1.2c-5.7,-5.3 -11.4,-9.9 -16.8,-13.7c-1.3,1.5 -5.9,6.1 -13.7,8.6c-7.4,2.3 -15.6,-2.6 -15.6,-2.6s6.6,-8.4 14.6,-9.5c4,-0.6 9.9,1.2 13,2.3c-7.3,-5 -14.1,-8.8 -20.1,-11.7c-0.7,1.2 -4.3,6.9 -11.9,10.8c-6.8,3.5 -15.5,0.2 -15.5,0.2s4.9,-9.2 12.4,-11.6c4.3,-1.4 11.4,-0.3 14.1,0.2c-5.3,-2.5 -9.8,-4.3 -13.3,-5.5c0,-0.2 0.1,-0.3 0.1,-0.5c2.6,0.8 5.7,1.9 9.3,3.4c-2.7,-1.9 -7,-5.3 -8.7,-8.5c-3.7,-7 -0.9,-17 -0.9,-17s8.6,3.6 11.1,10.9c2.5,7.6 1.5,13.9 1.1,15.7c5.7,2.4 12.3,5.8 19.5,10.2c-2.4,-2.5 -5.7,-6.3 -6.7,-9.6c-2.5,-7.7 2.2,-17.3 2.2,-17.3s8,5.2 9.2,12.9c1.2,7.9 -0.8,13.9 -1.6,15.9c5.5,3.6 11.2,7.9 17.1,13c-1.9,-2.9 -4.1,-6.8 -4.5,-10c-1.1,-8.2 5.2,-17 5.2,-17s7.1,6.6 6.9,14.6c-0.2,7.7 -3,13.3 -4.3,15.4c4.8,4.2 9.4,9.1 13.8,14.6c-1.2,-3 -2.2,-6.5 -2.1,-9.3c0.3,-8.4 8.3,-16.1 8.3,-16.1s6,7.9 4.4,15.9c-1.5,7.4 -5.1,12.4 -6.8,14.4c4,5.5 7.7,11.5 11,17.8c-0.7,-3.3 -1.3,-7.4 -0.6,-10.4c1.8,-8.4 11.1,-14.7 11.1,-14.7s4.6,9 1.6,16.8c-2.9,7.4 -7.6,11.8 -9.6,13.5c3,6.2 5.6,12.7 7.8,19.5c-0.1,-3.5 0,-7.8 1.2,-10.8c3.3,-8.1 13.8,-12.8 13.8,-12.8s3,9.9 -1.4,17.1c-4.2,6.9 -9.7,10.5 -12,11.8c1.8,6.4 3.2,12.9 4.3,19.6c0.5,-3.3 1.4,-7.1 3,-9.6c4.7,-7.6 16.1,-10.4 16.1,-10.4s1.3,10.5 -4.4,17c-5.3,6 -11.2,8.7 -13.9,9.6c0.7,6.2 0.9,12.5 0.8,18.9c1.1,-3 2.5,-6.2 4.4,-8.2c6.1,-6.8 18.1,-7.6 18.1,-7.6s-0.5,10.8 -7.4,16.3c-6.2,5 -12.4,6.6 -15.4,7.2c-0.5,6.1 -1.4,12.2 -2.7,18.2c1.6,-2.9 3.7,-5.9 6,-7.7c7.3,-5.7 19.5,-4.5 19.5,-4.5s-2.5,10.7 -10.4,15c-6.6,3.9 -13.2,4.4 -16.3,4.4z" class="st1"/>
  <text style="cursor: move;" id="svg_3" x="175.99001" y="33.799" font-size="33.4735px" font-family="'Helvetica'" fill="#fd7cad" text-anchor="middle" alignment-baseline="middle" class="st2 st3 st4">2021</text>
  <path id="svg_4" fill="#fd7cad" d="m133.5,72.8l-8.5,0l0,-3.1l20.6,0l0,3.1l-8.5,0l0,24.8l-3.6,0l0,-24.8z" class="st5"/>
  <path id="svg_5" fill="#fd7cad" d="m171.5,83.4c0,9.6 -5.8,14.7 -12.9,14.7c-7.4,0 -12.5,-5.7 -12.5,-14.1c0,-8.9 5.5,-14.6 12.9,-14.6c7.5,-0.1 12.5,5.7 12.5,14zm-21.7,0.5c0,6 3.2,11.3 8.9,11.3s8.9,-5.3 8.9,-11.6c0,-5.5 -2.9,-11.3 -8.9,-11.3c-5.9,-0.1 -8.9,5.4 -8.9,11.6z" class="st5"/>
  <path id="svg_6" fill="#fd7cad" d="m176.1,70.1c1.7,-0.3 4,-0.5 6.9,-0.5c3.6,0 6.2,0.8 7.8,2.3c1.5,1.3 2.4,3.4 2.4,5.8c0,2.5 -0.7,4.5 -2.2,6c-1.9,2 -5,3.1 -8.5,3.1c-1.1,0 -2.1,0 -2.9,-0.2l0,11.2l-3.6,0l0,-27.7l0.1,0zm3.6,13.4c0.8,0.2 1.8,0.3 3,0.3c4.3,0 7,-2.1 7,-6c0,-3.7 -2.6,-5.5 -6.6,-5.5c-1.6,0 -2.8,0.1 -3.4,0.3l0,10.9z" class="st5"/>
  <path id="svg_7" fill="#fd7cad" d="m206.5,93.5c1,0.7 3.4,1.7 6,1.7c4.7,0 6.1,-3 6.1,-5.2c0,-3.8 -3.4,-5.4 -7,-5.4l-2,0l0,-2.7l2,0c2.6,0 6,-1.4 6,-4.6c0,-2.2 -1.4,-4.1 -4.7,-4.1c-2.2,0 -4.2,1 -5.4,1.8l-1,-2.6c1.4,-1 4.1,-2.1 7,-2.1c5.3,0 7.7,3.1 7.7,6.4c0,2.8 -1.7,5.1 -5,6.3l0,0.1c3.3,0.7 6,3.1 6,6.9c0,4.3 -3.4,8.1 -9.8,8.1c-3,0 -5.7,-1 -7,-1.8l1.1,-2.8z" class="st5"/>
  <text id="svg_8" x="173.82001" y="143.16" font-size="16.95px" fill="#fd7cad" font-family="'Helvetica'" text-anchor="middle" alignment-baseline="middle" class="st5 st3 st6">PODIATRIST CLINICS</text>
  <text id="svg_9" x="173.34" y="180.06" font-size="21.382px" fill="#fd7cad" font-family="'Helvetica'" text-anchor="middle" alignment-baseline="middle" class="st5 st3 st7">IN</text>
  <text style="cursor: move;" id="svg_10" x="173.78" y="216.96001" font-size="17.0583px" fill="#fd7cad" font-family="'Helvetica'" text-anchor="middle" alignment-baseline="middle" class="st5 st3 st27">RHONDDA CYNON TAFF</text>
  <path id="svg_11" fill="url(#h)" d="m116.3,284.5c0.7,-3.1 0,-4.3 -8,-6.7s-63.1,-12.2 -75.4,-32.3c-0.4,18.5 16.1,29.9 16.1,29.9s-24.8,0 -37.1,-6.1c12,17.2 53.1,28 53.1,28l39.9,-6.2l11.4,-6.6z" class="st9"/>
  <path id="svg_12" fill="url(#g)" d="m235.9,284.3c-0.7,-3.1 0,-4.3 8,-6.7s63.1,-12.2 75.4,-32.3c0.4,18.5 -16.1,29.9 -16.1,29.9s24.8,0 37.1,-6.1c-12,17.2 -53.1,28 -53.1,28l-39.9,-6.2l-11.4,-6.6z" class="st10"/>
  <path id="svg_13" fill="url(#f)" d="m243.9,278.3c8,-2.4 63,-12.2 75.4,-32.3l0,-0.8c-12.3,20.1 -67.4,29.9 -75.4,32.3c-7,2.1 -8.4,3.3 -8.2,5.6c0.2,-1.7 2.1,-2.9 8.2,-4.8z" class="st11"/>
  <path id="svg_14" fill="url(#e)" d="m304.1,275.2c-0.6,0.5 -1,0.8 -1,0.8s23.7,0 36.3,-5.7c0.3,-0.4 0.6,-0.8 0.9,-1.2c-10.9,5.4 -31.4,6 -36.2,6.1z" class="st12"/>
  <path id="svg_15" fill="url(#d)" d="m49.1,276.2s-0.4,-0.2 -1,-0.8c-4.7,-0.1 -25.3,-0.7 -36.1,-6.1c0.3,0.4 0.6,0.8 0.9,1.2c12.5,5.7 36.2,5.7 36.2,5.7z" class="st13"/>
  <path id="svg_16" fill="url(#c)" d="m108.4,277.8c-8,-2.4 -63.1,-12.2 -75.4,-32.3l0,0.8c12.3,20.1 67.4,29.8 75.4,32.2c6.2,1.8 8,3 8.2,4.8c0.2,-2.2 -1.3,-3.4 -8.2,-5.5z" class="st14"/>
  <path id="svg_17" fill="url(#b)" d="m74.3,279.4c2,-2.9 9.6,-2.1 21.4,1.5s18.5,4.3 20.9,1.5c1.1,4.2 -9.1,15.3 -9.1,15.3l-29,-2.6s-3.5,-0.9 -3.8,-1.6s-0.4,-14.1 -0.4,-14.1z" class="st15"/>
  <path id="svg_18" fill="url(#a)" d="m278,279.4c-2,-2.9 -9.6,-2.1 -21.4,1.5s-18.5,4.3 -20.9,1.5c-1.1,4.2 9.1,15.3 9.1,15.3l29,-2.6s3.5,-0.9 3.8,-1.6c0.4,-0.7 0.4,-14.1 0.4,-14.1z" class="st16"/>
  <path id="svg_19" fill="url(#q)" d="m74.6,279.2l-16.9,22.7c-3.9,4.8 -3.9,4.8 -1.4,7c25.1,15.7 76.1,21.6 117.4,22.1l1.7,0l0,-28.2c-97.5,-0.8 -100.8,-23.6 -100.8,-23.6z" class="st17"/>
  <path id="svg_20" fill="url(#p)" d="m178.5,330.9c41.3,-0.4 92.3,-6.4 117.4,-22.1c2.4,-2.1 2.4,-2.1 -1.4,-7l-16.9,-22.7s-3.3,22.9 -101.5,23.6l-0.8,0l0,28.2l0.8,0l2.4,0z" class="st18"/>
  <path id="svg_21" fill="url(#o)" d="m277.5,280.3s-3.3,22.9 -101.5,23.6c-98.1,-0.6 -101.4,-23.6 -101.4,-23.6l0,-1.1s3.3,22.9 101.5,23.6c98.2,-0.7 101.5,-23.6 101.5,-23.6l-0.1,1.1z" class="st19"/>
  <path id="svg_22" fill="#010101" d="m86.6,300.4l-4.9,-1.4l0.5,-1.8l12,3.5l-0.5,1.8l-4.9,-1.4l-4.2,14.3l-2.1,-0.6l4.1,-14.4z" class="st20"/>
  <path id="svg_23" fill="#010101" d="m97.7,301.6l-1.6,6.8l7.9,1.8l1.6,-6.8l2.1,0.5l-3.8,16.4l-2.1,-0.5l1.8,-7.7l-7.9,-1.8l-1.8,7.7l-2.1,-0.5l3.8,-16.4l2.1,0.5z" class="st20"/>
  <path id="svg_24" fill="#010101" d="m111.1,304.8c1.1,0 2.7,0.1 4.2,0.4c2.3,0.4 3.7,1.1 4.6,2.2c0.7,0.9 1,2.1 0.8,3.4c-0.4,2.2 -2,3.4 -3.9,3.7l0,0.1c1.2,0.7 1.7,2 1.8,3.8c0.1,2.4 0.2,4.1 0.5,4.8l-2.2,-0.4c-0.2,-0.5 -0.3,-2 -0.4,-4.1c-0.1,-2.4 -0.8,-3.4 -2.7,-3.8l-2,-0.4l-1.3,7.2l-2.1,-0.4l2.7,-16.5zm0.8,7.9l2.2,0.4c2.3,0.4 4,-0.6 4.3,-2.5c0.4,-2.1 -1,-3.3 -3.3,-3.8c-1,-0.2 -1.8,-0.2 -2.1,-0.2l-1.1,6.1z" class="st20"/>
  <path id="svg_25" fill="#010101" d="m131.6,316.7l-6.5,-0.8l-0.8,6l7.2,1l-0.2,1.8l-9.4,-1.2l2.2,-16.7l9,1.2l-0.2,1.8l-6.8,-0.9l-0.7,5.3l6.5,0.9l-0.3,1.6z" class="st20"/>
  <path id="svg_26" fill="#010101" d="m143.9,317.9l-6.5,-0.6l-0.6,6l7.3,0.7l-0.2,1.8l-9.4,-0.9l1.5,-16.7l9.1,0.8l-0.1,2l-6.9,-0.6l-0.5,5.3l6.4,0.6l-0.1,1.6z" class="st20"/>
  <path id="svg_27" fill="#010101" d="m153.2,309.8c1,-0.2 2.5,-0.2 4,-0.2c2.2,0.1 3.5,0.5 4.6,1.4c0.8,0.7 1.4,1.7 1.3,3c-0.1,1.6 -1.2,3 -3,3.6c1.6,0.5 3.4,1.9 3.3,4.3c0,1.4 -0.7,2.5 -1.5,3.3c-1.2,1 -3.1,1.4 -5.9,1.4c-1.5,0 -2.6,-0.2 -3.4,-0.3l0.6,-16.5zm1.6,15.1c0.4,0.1 1,0.2 1.8,0.2c2.2,0.1 4.3,-0.6 4.4,-3.1c0.1,-2.3 -1.8,-3.3 -4.2,-3.4l-1.8,-0.1l-0.2,6.4zm0.3,-8.1l2,0.1c2.3,0.1 3.7,-1 3.7,-2.7c0.1,-2 -1.4,-2.8 -3.6,-2.9c-1,0 -1.6,0 -1.9,0.1l-0.2,5.4z" class="st20"/>
  <path id="svg_28" fill="#010101" d="m175.2,319l-6.6,0l0,6.1l7.3,0l0,1.8l-9.5,0l0.1,-16.8l9.1,0l0,1.8l-6.9,0l0,5.3l6.6,0l0,1.8l-0.1,0z" class="st20"/>
  <path id="svg_29" fill="#010101" d="m178.7,324.2c1,0.6 2.4,1 3.9,1c2.2,0 3.5,-1.3 3.5,-3c0,-1.6 -1,-2.5 -3.3,-3.3c-2.8,-0.9 -4.5,-2.3 -4.6,-4.6c-0.1,-2.6 2.1,-4.6 5.3,-4.7c1.7,0 3,0.3 3.7,0.7l-0.6,1.8c-0.6,-0.3 -1.7,-0.8 -3.2,-0.7c-2.3,0.1 -3.1,1.5 -3.1,2.6c0,1.6 1.1,2.3 3.4,3.1c2.9,1 4.4,2.3 4.4,4.8c0.1,2.6 -1.8,4.9 -5.8,5c-1.6,0 -3.4,-0.4 -4.3,-1l0.7,-1.7z" class="st20"/>
  <path id="svg_30" fill="#010101" d="m193.7,311.4l-5.1,0.3l-0.1,-1.8l12.4,-0.7l0.1,1.8l-5.1,0.3l0.8,14.9l-2.2,0.1l-0.8,-14.9z" class="st20"/>
  <path id="svg_31" fill="#010101" d="m207.3,308.8c1.1,-0.3 2.6,-0.6 4.1,-0.8c2.3,-0.2 3.9,0 5,0.9c0.9,0.7 1.5,1.7 1.6,3.1c0.2,2.2 -1,3.8 -2.7,4.6l0,0.1c1.4,0.3 2.2,1.4 2.8,3.1c0.8,2.3 1.3,3.9 1.7,4.4l-2.2,0.2c-0.3,-0.4 -0.8,-1.9 -1.5,-3.9c-0.7,-2.3 -1.7,-3.1 -3.7,-2.9l-2,0.2l0.7,7.3l-2.1,0.2l-1.7,-16.5zm2.9,7.4l2.2,-0.2c2.3,-0.2 3.7,-1.6 3.5,-3.5c-0.2,-2.1 -1.9,-2.9 -4.1,-2.7c-1,0.1 -1.8,0.3 -2.1,0.4l0.5,6z" class="st20"/>
  <path id="svg_32" fill="#010101" d="m224.3,318.4l-1.1,5.5l-2.2,0.3l3.5,-17.4l2.6,-0.3l7.8,16l-2.3,0.3l-2.5,-5l-5.8,0.6zm5.2,-2.4l-2.2,-4.6c-0.5,-1 -0.9,-2 -1.3,-2.9c-0.1,1 -0.3,2.1 -0.5,3.1l-1,5l5,-0.6z" class="st20"/>
  <path id="svg_33" fill="#010101" d="m236.3,307l-5,0.8l-0.3,-1.8l12.3,-1.9l0.3,1.8l-5.1,0.8l2.2,14.8l-2.2,0.3l-2.2,-14.8z" class="st20"/>
  <path id="svg_34" fill="#010101" d="m254.7,311.2l-6.4,1.1l1,6l7.2,-1.3l0.3,1.8l-9.3,1.6l-2.9,-16.6l8.9,-1.5l0.3,1.8l-6.8,1.2l0.9,5.2l6.4,-1.1l0.4,1.8z" class="st20"/>
  <path id="svg_35" fill="#010101" d="m256.2,302c1.3,-0.5 2.8,-0.9 4.4,-1.3c3.1,-0.6 5.4,-0.4 7.1,0.7c1.7,1 3,2.8 3.5,5.4c0.6,2.7 0.2,5 -1.1,6.9c-1.2,1.9 -3.6,3.2 -6.8,3.9c-1.5,0.3 -2.8,0.5 -3.9,0.6l-3.2,-16.2zm5.1,14.2c0.6,0 1.4,-0.2 2.2,-0.3c4.5,-0.9 6.5,-4 5.6,-8.4c-0.8,-3.9 -3.5,-5.9 -7.9,-5c-1.1,0.2 -1.9,0.5 -2.5,0.7l2.6,13z" class="st20"/>
  <circle id="svg_36" stroke-miterlimit="10" stroke-width="0.3972" stroke="#010101" fill="none" r="3.9" cy="299.8" cx="275.3" class="st21"/>
  <path id="svg_37" fill="#010101" d="m273.1,297.9c0.3,-0.2 0.8,-0.4 1.2,-0.6c0.7,-0.2 1.2,-0.3 1.6,-0.1c0.3,0.1 0.6,0.4 0.7,0.8c0.2,0.6 0,1.2 -0.5,1.6c0.4,0 0.8,0.3 1.1,0.8c0.4,0.6 0.7,1.1 0.9,1.2l-0.7,0.2c-0.1,-0.1 -0.4,-0.5 -0.8,-1.1s-0.8,-0.8 -1.4,-0.6l-0.6,0.2l0.8,2.1l-0.6,0.2l-1.7,-4.7zm1.4,2.1l0.6,-0.2c0.7,-0.2 1,-0.8 0.8,-1.4s-0.8,-0.8 -1.5,-0.5c-0.3,0.1 -0.5,0.2 -0.6,0.3l0.7,1.8z" class="st20"/>
  <polygon id="svg_38" fill="url(#n)" points="205.5 252.6 198.2 251.9 204.4 255.9 201.5 262.7 207.2 257.9 212.8 262.8 210 256 216.5 252.1 209 252.6 207.4 245.4" class="st22"/>
  <polygon id="svg_39" fill="url(#m)" points="140.3 252.6 133 251.9 139.2 255.9 136.3 262.7 142 257.9 147.5 262.8 144.8 256 151.2 252.1 143.8 252.6 142.2 245.4" class="st23"/>
  <polygon id="svg_40" fill="url(#l)" points="156.3 250.4 147.3 249.6 154.9 254.4 151.3 262.6 158.3 256.9 165.1 262.8 161.7 254.5 169.6 249.8 160.5 250.4 158.5 241.7" class="st24"/>
  <polygon id="svg_41" fill="url(#k)" points="188.8 250.9 180.2 250.1 187.5 254.7 184 262.6 190.7 257.1 197.2 262.8 194 254.8 201.5 250.3 192.8 250.9 190.9 242.5" class="st25"/>
  <polygon id="svg_42" fill="url(#j)" points="173 248.3 162.5 247.3 171.4 252.9 167.2 262.6 175.3 255.9 183.2 262.8 179.3 253.1 188.5 247.6 177.9 248.4 175.6 238.1" class="st26"/>
 </g>
</svg>